<svg height="73" viewBox="0 0 63 73" width="63" xmlns="http://www.w3.org/2000/svg" xmlns:xlink="http://www.w3.org/1999/xlink"><defs><path id="a" d="m35.1062458 0c15.3772103.00731711 27.8863708 12.4041355 27.8937542 27.6432464-.0073834 15.2675664-12.5165439 27.6708889-27.8937542 27.678206-5.7648131 0-11.1391252-1.7309042-15.5691794-4.6715713l-.0139465-.0138212c-4.6638626-3.1731887-8.3555744-7.6756533-10.43605912-12.9594232l-.09926603-.2463428v-.0495938c-1.19283311-3.0398547-1.81057956-6.3041009-1.81057956-9.7374537 0-15.2391109 12.51572351-27.6432464 27.92903061-27.6432464zm-17.7341633 10.0959923c-.4331608.4292707-.8384288.8723627-1.2322114 1.3300888l.9155446 3.4894508c.2124785.8089476.9508209 1.3788696 1.7958127 1.3788696h4.1675325c.6882991 0 1.3208124-.379677 1.6399404-.9918756l1.3774187-2.6105839c.418394-.7951265 1.0435239-1.4284634 1.7744828-1.850417.7235755-.4219536 1.5472375-.6471582 2.3922293-.6471582.9155445 0 1.8532393.2674812 2.6621344.830086l1.9803983 1.3577313c1.3199921.9081353 2.0230581 2.3642411 2.0230581 3.827664 0 1.0130139-.3412783 2.0471661-1.0295774 2.9057076-.2764682.3447174-.4044476.7390286-.4044476 1.1398439 0 .3235791.0853196.6471581.2485753.9284605s.3978845.5138241.7170125.6894348l3.2938273 1.7796849c1.2207261.6617924 2.0796643 1.8219616 2.3569529 3.1731888l1.533291 7.6333767c.099266.4788645.3330744.8235819.6669693 1.083746.3265114.2536599.7449054.4016283 1.1641198.3943112.4405442 0 .8523752-.1406513 1.2354929-.4780515l5.2889924-4.7910842c.3831177-.3447174.5964166-.8374031.5964166-1.3512271l-.0073834-.1691067-.4832041-5.3187294c-.0139464-.1414642-.0213299-.2821154-.0213299-.4154495 0-1.5683016.8023321-3.0463588 2.1510375-3.9114043l3.6351055-2.3284685c-1.2420559-2.6382264-2.9468064-5.0309229-5.0051408-7.078089-4.5440871-4.4959605-10.7986673-7.28215518-17.6988869-7.28215518-6.9215495 0-13.1908966 2.78619468-17.7341633 7.28215518zm-5.1331202 27.7131655c1.8031961 3.9683152 4.6499162 7.401668 8.17345 9.9772924l3.8196912-2.2585494c1.7113135-1.0130139 2.8327735-2.7650563 3.038689-4.7276691l.2485753-2.4764368c.0139464-.0983746.0139464-.190245.0139464-.2886196 0-.7455326-.3051815-1.4349675-.808895-1.9414744-.504534-.4991898-1.1928332-.8089477-1.9738353-.8089477h-1.9877817c-.7949486 0-1.5825138-.1691066-2.3069097-.4853686-.1345424-.063415-.2625218-.126017-.3905011-.1967491l-.0426598-.0211383c-.0713731-.0422767-.1419258-.0845533-.2132989-.12683l-.0426598-.0284554c-.1140329-.0707322-.2272454-.1406512-.3338948-.2252046h-.0073834c-.1640761-.1195128-.3199484-.2463428-.4618742-.3796769h-.0073834c-.1279794-.1121958-.2420122-.2317087-.3552247-.3585386l-.0713731-.0707322c-.5898535-.6544752-1.2781527-.9292735-2.0591549-.9430947-.5045339 0-1.0156309.1471553-1.4627382.4219536-.4471073.2813024-.823662.6821177-1.0722372 1.2097629zm40.56535 7.4089852c4.5440871-4.5097817 7.3555307-10.715508 7.3563511-17.5748966 0-2.7300968-.4544907-5.3471848-1.2781527-7.8024833l-3.1666683 2.0260277c-.5332473.3447174-.8523753.9284606-.8523753 1.5479763l.0082038.1609765.4897671 5.3187294c.0139465.1406512.0139465.2813024.0139465.4219536 0 1.2943163-.5471937 2.547169-1.5267279 3.4333529l-5.2816091 4.78458c-.9081611.8227689-2.0517714 1.2243972-3.1519015 1.2170801-1.0582908 0-2.0804847-.3447174-2.9180931-.9918756-.830225-.640654-1.4693013-1.6040741-1.6965467-2.7512351l-1.5406744-7.6333767c-.1066495-.5341494-.4471073-.9918755-.9303114-1.2520396l-3.2938273-1.7796849c-.7801818-.4219536-1.3979283-1.0406563-1.8171426-1.7585466-.4110106-.7105731-.6243095-1.5122037-.6243095-2.3284685-.0065631-1.0056968.3338948-2.0471661 1.0295774-2.8983905.2764682-.3455304.4044475-.7463457.4044475-1.1471609 0-.5910603-.2772886-1.1544781-.802332-1.5130168l-1.9738353-1.3577312c-.3338948-.2252046-.6891195-.3308962-1.0509073-.3308962-.3330744 0-.6669693.0910574-.9508209.260164-.291235.1682937-.5250434.4081324-.6956826.7243944l-1.3774187 2.617088c-.808895 1.5333421-2.4135591 2.4975752-4.160149 2.4975752h-4.1675325c-2.1362706 0-4.0034564-1.4357805-4.5432667-3.4829466l-.3478413-1.3154546c-2.4923156 3.8553064-3.9402871 8.4285031-3.9402871 13.332596 0 2.2235899.2912351 4.3406751.8376084 6.3601987l.4971506-1.0902501.0073834-.0138212c.4823837-1.0341522 1.2494393-1.8569211 2.143654-2.4130218.8942146-.5561007 1.923792-.8439073 2.9673159-.8512244 1.533291-.0073171 3.0739654.6398411 4.181479 1.8853766l.0139464.0138212c.5324269.6048815 1.2920992.9357777 2.0944312.9357777h1.9877817c1.5611839 0 2.9812624.6325239 3.98951 1.6390337 1.0082475 1.0130139 1.632557 2.4065177 1.632557 3.9260385 0 .190245-.0073835.379677-.0287134.569922l-.2485752 2.4764368c-.2912351 2.8487967-1.9237921 5.3959656-4.4087243 6.8593885l-2.5915817 1.5341551c3.556349 1.9211491 7.6525084 3.0325375 12.0120099 3.0325375 6.90104 0 13.1556202-2.7861946 17.6988869-7.2886592zm7.0058143 6.9316212c-6.0321964 5.9731717-14.263097 9.7774269-23.3606223 10.1299261v7.6423118h16.1094552v2.7861924h-35.0344235v-2.7869972h16.1086414v-7.6366782c-6.6978292-.2655816-12.9179977-2.3862105-18.1144911-5.8275042l-.0089511-.0056335-.0056961-.004024c-5.85805769-3.983724-10.49633089-9.6221019-13.10434239-16.2423269l-.09602039-.2438522v-.0603595c-1.51761044-3.824375-2.30448942-7.9392803-2.30367569-12.2706747-.00081373-9.5408179 3.93358116-18.20199725 10.27825067-24.46891825l1.9903888 1.9709374c-5.8409693 5.77438785-9.4514988 13.72252085-9.45231254 22.49878565.00081374 4.0947854.7518885 7.9360611 2.20195917 11.4988785l.10171652.2502905v.0450684c2.4078334 5.9731717 6.63598555 11.0924583 11.97244095 14.7228783 5.1183752 3.3865678 11.3035532 5.381649 17.9704606 5.381649 8.8737489 0 16.9166774-3.5716702 22.7543918-9.3484724z"/><mask id="b" fill="#fff"><use fill="#fff" fill-rule="evenodd" xlink:href="#a"/></mask></defs><g fill="none" fill-rule="nonzero"><use fill="#068295" xlink:href="#a"/><g fill="#068295" mask="url(#b)"><path d="m0 0h75v75h-75z" transform="translate(-6 -1)"/></g></g></svg>