<svg xmlns="http://www.w3.org/2000/svg" viewBox="0 0 115 115"><path d="M39,56.69a5,5,0,0,0-5,5,1.41,1.41,0,1,0,2.81,0,2.19,2.19,0,0,1,4.37,0,1.41,1.41,0,1,0,2.81,0,5,5,0,0,0-5-5ZM94,45.37c1.55-.17,2.86,1.31,3.44,2.32s.5,1.64.41,1.79-.29.3-.84.24c-.92-.1-2.32-1.5-3-4.35ZM38.85,37.13a11,11,0,0,1,7.59,3.07c.07.07.16.09.23.15v.08a12.29,12.29,0,0,0,5.79,8.78c-.82.14-1.64.23-2.44.41a1.4,1.4,0,1,0,.61,2.74,40.92,40.92,0,0,1,17-.07,1.41,1.41,0,1,0,.58-2.76c-.91-.19-1.85-.3-2.78-.44a12.33,12.33,0,0,0,4.1-4.36c7.57,2.07,14.18,6.32,18.26,12.2C95.05,67.36,93,80.2,82.52,88.74a1.48,1.48,0,0,0-.54.93l-2.34,12.8a.47.47,0,0,1-.1.27H73.37V96.13a1.56,1.56,0,0,0-2-1.49,39.74,39.74,0,0,1-12,1.85,39.28,39.28,0,0,1-9-1A1.56,1.56,0,0,0,48.36,97v5.77H42.2a.83.83,0,0,1-.11-.27L40.22,92.14a1.54,1.54,0,0,0-.73-1.06A27.51,27.51,0,0,1,28.35,78.69a1.57,1.57,0,0,0-1.44-.94H23.37a6.2,6.2,0,0,1-6.25-6.25V65.25A6.2,6.2,0,0,1,23.37,59h5.18a1.57,1.57,0,0,0,1.33-.75,28.27,28.27,0,0,1,7-7.6,13.16,13.16,0,0,1,1.65,2.27,1.56,1.56,0,1,0,2.73-1.52,15.51,15.51,0,0,0-12.12-7.6c2-3.91,5.53-6.68,9.73-6.68Zm19.67-5.35v1.53a5.34,5.34,0,0,0-1.39.31,3.55,3.55,0,0,0-1.08.62,2.71,2.71,0,0,0-.69.89,2.54,2.54,0,0,0-.24,1.14,2.67,2.67,0,0,0,.27,1.26,2.87,2.87,0,0,0,.75.92,5.45,5.45,0,0,0,1.17.68c.45.2.94.4,1.48.59a4.58,4.58,0,0,1,.65.29,1.73,1.73,0,0,1,.43.33.91.91,0,0,1,.24.38,1.38,1.38,0,0,1,.09.52,1,1,0,0,1-.08.43,1,1,0,0,1-.21.36,1.08,1.08,0,0,1-.37.24,1.69,1.69,0,0,1-.53.08,2.89,2.89,0,0,1-.6-.08,1.3,1.3,0,0,1-.5-.28,1.37,1.37,0,0,1-.35-.52,2.2,2.2,0,0,1-.13-.82H54.68A3.47,3.47,0,0,0,55,42.19a3,3,0,0,0,.82,1.05,3.6,3.6,0,0,0,1.17.64,6.56,6.56,0,0,0,1.37.29v1.47h1.29V44.18A5,5,0,0,0,61,43.89a3.52,3.52,0,0,0,1-.61,2.5,2.5,0,0,0,.66-.89,3,3,0,0,0,0-2.42,2.94,2.94,0,0,0-.77-.92,5.57,5.57,0,0,0-1.16-.7c-.45-.21-.93-.41-1.46-.61a4.89,4.89,0,0,1-.68-.32,2.29,2.29,0,0,1-.43-.32,1,1,0,0,1-.23-.36,1.45,1.45,0,0,1,0-.89,1.13,1.13,0,0,1,.19-.36.93.93,0,0,1,.35-.23,1.25,1.25,0,0,1,.53-.1,1.53,1.53,0,0,1,.49.08,1.11,1.11,0,0,1,.4.29,1.34,1.34,0,0,1,.26.49,2.2,2.2,0,0,1,.1.72H63a3.38,3.38,0,0,0-.23-1.3,2.79,2.79,0,0,0-.65-1,3.09,3.09,0,0,0-1-.7,4.69,4.69,0,0,0-1.3-.37V31.78Zm.32-2.6a9.53,9.53,0,1,1-9.52,9.53A9.52,9.52,0,0,1,58.84,29.18Zm0-2.81a12.35,12.35,0,0,0-12.11,10.1A14,14,0,0,0,38.85,34v0A14.81,14.81,0,0,0,25,44.54a1.57,1.57,0,0,0,1.62,2c.32,0,.65,0,1,0a12.35,12.35,0,0,1,6.87,2.09,32.26,32.26,0,0,0-6.51,7.28H23.37A9.39,9.39,0,0,0,14,65.28v6.25a9.38,9.38,0,0,0,9.38,9.37h2.71A30.69,30.69,0,0,0,37.24,93.27L39,103.06a3.75,3.75,0,0,0,.91,1.89,3.07,3.07,0,0,0,2.19,1h6.25a3.15,3.15,0,0,0,3.13-3.12v-4a41.93,41.93,0,0,0,7.82.9A42.44,42.44,0,0,0,70.24,98v4.81a3.15,3.15,0,0,0,3.12,3.12h6.25a3.07,3.07,0,0,0,2.19-1,3.67,3.67,0,0,0,.91-1.89L85,90.63c11-9.42,13.36-24,5.4-35.45a31,31,0,0,0-2.48-3.11l0-.09A4.6,4.6,0,0,1,88,48.1a4.78,4.78,0,0,1,3-2.43c.86,4.17,3.11,6.86,5.71,7.16a3.94,3.94,0,0,0,3.9-1.79,4.91,4.91,0,0,0-.41-4.92,7.5,7.5,0,0,0-6.24-3.63c.19-1.09.33-2.27.94-2.84a4.88,4.88,0,0,1,3.49-1.18,1.56,1.56,0,1,0,.13-3.11,7.94,7.94,0,0,0-5.75,2,7.71,7.71,0,0,0-2.16,5.16c-.53.12-.73.18-1.09.29a8.43,8.43,0,0,0-4.27,3.85,7.36,7.36,0,0,0-.66,2.21,37.66,37.66,0,0,0-13.77-7,11.86,11.86,0,0,0,.45-3.11A12.37,12.37,0,0,0,58.83,26.37ZM51.47,19.1a1.56,1.56,0,0,0-1.54,1.58v.85h0a1.61,1.61,0,0,0,.45,1.12,1.56,1.56,0,0,0,2.23,0,1.61,1.61,0,0,0,.45-1.12v-.84h0a1.64,1.64,0,0,0-.46-1.13,1.59,1.59,0,0,0-1.13-.45ZM64,15.88a1.52,1.52,0,0,0-1.1.47,1.64,1.64,0,0,0-.44,1.11v5.62a1.65,1.65,0,0,0,.45,1.13,1.58,1.58,0,0,0,2.23,0,1.65,1.65,0,0,0,.45-1.13V17.46a1.6,1.6,0,0,0-.46-1.13A1.55,1.55,0,0,0,64,15.88Zm-6.25-2.19a1.56,1.56,0,0,0-1.54,1.58v6.25a1.61,1.61,0,0,0,.45,1.12,1.56,1.56,0,0,0,2.23,0,1.61,1.61,0,0,0,.45-1.12V15.27a1.57,1.57,0,0,0-1.59-1.58ZM64,9.1a1.52,1.52,0,0,0-1.1.47,1.64,1.64,0,0,0-.44,1.11V12a1.57,1.57,0,1,0,3.13,0V10.68A1.55,1.55,0,0,0,64,9.1Zm-12.5,0a1.52,1.52,0,0,0-1.1.47,1.64,1.64,0,0,0-.44,1.11v4.59a1.61,1.61,0,0,0,.45,1.12,1.56,1.56,0,0,0,2.23,0,1.61,1.61,0,0,0,.45-1.12V10.68A1.55,1.55,0,0,0,51.47,9.1Z" style="fill:#078295;stroke:#078295;stroke-miterlimit:10;stroke-width:.5px"/></svg>