<svg id="guarantee" xmlns="http://www.w3.org/2000/svg" viewBox="0 0 115 115"><defs><style>.cls-1{fill:#078295;stroke:#078295;stroke-linecap:round;stroke-linejoin:round;stroke-width:.75px}</style></defs><path class="cls-1" d="M58 11a12.47 12.47 0 1 0 12.48 12.51A12.48 12.48 0 0 0 58 11zm0 21.34a8.87 8.87 0 1 1 8.86-8.87A8.88 8.88 0 0 1 58 32.38zM106 77c.37-2.58-1.2-5.47-5.54-6.09-5.4-.77-13-9.28-19-21.17-5.32-10.64-23.26-10.27-24-10.25h-.59a1.81 1.81 0 0 0-.29 0c-.74 0-17.66-.49-23 10.24-5.24 10.48-13 18.38-19 19.23a6.8 6.8 0 0 0-4.36 2.1 4.84 4.84 0 0 0-1.19 4c.47 3.25 4.08 6.32 9.1 5.61 8.65-1.24 15.87-5.9 21.52-13.84l1-1.47.35 1.78c.85 5.32.87 12.86-4 18.46l-.27.32-.41-.07a45 45 0 0 0-6.8-.57c-3.38 0-7 .5-9.5 2.24a6.88 6.88 0 0 0-2.94 5c-.38 3.23.36 5.82 2.18 7.69 2.56 2.63 7.2 3.8 15.05 3.8 6 0 13.62-.69 22.41-1.49l5-.45a2.28 2.28 0 0 0 .55-.15l.2-.08h.21a112.84 112.84 0 0 0 19.06 2.05c7.65 0 12.43-1.53 14.6-4.67 1-1.47 1.91-4 .43-7.9-1.73-4.54-6.93-5.12-11.26-5.12-1.56 0-3.24.09-4.53.17h-.42l-.24-.37a2.08 2.08 0 0 0-.29-.35c-4.8-4.26-5.56-11.78-5.35-17.34l.08-2.17L76 67.93c8.34 11.76 17.37 14.19 20.86 14.69a8.94 8.94 0 0 0 6.14-1.23 6.46 6.46 0 0 0 3-4.39zM47.43 99.67c-5.21.42-9.68.69-13.4.69-6.14 0-10.22-.73-12.16-2.72-.67-.68-1.52-1.92-1.18-4.76a3.25 3.25 0 0 1 1.45-2.43C25.43 88.11 33 89 35.23 89.32l.64.09v.66c-.07 2.64 1.85 4.91 4.89 5.78 1.32.38 2.44.78 3.87 1.32.9.33 1.87.69 3 1.06L51 99.37zm30.12-9.47c2.9-.22 5.63-.41 8-.43 4.77 0 7.13.84 7.87 2.81.73 1.93.72 3.46 0 4.56-1 1.43-3.8 3.13-11.64 3.13-5.8 0-13.5-1-22.87-2.83a75.58 75.58 0 0 1-13-3.65c-1.46-.55-2.69-1-4.12-1.4S39.32 91 39.47 90c.18-1.28 1.91-2.67 5.28-2.67a19.82 19.82 0 0 1 6.44 1.27 45.13 45.13 0 0 0 15.1 2.21c3.84 0 7.69-.29 11.09-.55zm24.36-12.61A4.63 4.63 0 0 1 97.39 79c-8-1.14-16.22-8.28-22-19.08a1.79 1.79 0 0 0-1.87-.92A1.81 1.81 0 0 0 72 60.41c-.14.65-3.46 15.85 3.21 25.22L76 86.7l-1.31.09c-2.43.18-5.33.36-8.36.36a41.67 41.67 0 0 1-13.91-2 22 22 0 0 0-8.6-1.44l-1.2.08.48-1.11c4.44-10.24 0-22-.14-22.52a1.8 1.8 0 0 0-3.3-.16c-5.42 10-12.84 15.78-22.05 17.1a4.65 4.65 0 0 1-4.51-1.45 1.91 1.91 0 0 1-.44-1.82c.26-.63 1.14-1.11 2.41-1.29 8.83-1.26 17.2-12.2 21.69-21.19 4.34-8.67 19.52-8.26 19.67-8.25a2.47 2.47 0 0 0 .44 0L57 43h.14a2.52 2.52 0 0 0 .42 0c4.53-.14 17.08 1.07 20.68 8.25 5.21 10.43 13.64 22 21.69 23.13 1.27.18 2.15.66 2.41 1.3a1.93 1.93 0 0 1-.44 1.81z"/></svg>